<?xml version="1.0" encoding="UTF-8" standalone="no"?>
<!-- Created with Inkscape (http://www.inkscape.org/) -->

<svg
   width="100pt"
   height="100pt"
   viewBox="0 0 35.277777 35.277777"
   version="1.1"
   id="svg5"
   xmlns="http://www.w3.org/2000/svg"
   xmlns:svg="http://www.w3.org/2000/svg">
  <defs
     id="defs2" />
  <g
     id="layer1">
    <path
       id="path736"
       style="fill:#302571;stroke:#f9d4f7;stroke-width:0.19824229;stroke-linecap:round;stroke-linejoin:round;stroke-dasharray:none;stroke-opacity:1;fill-opacity:1"
       d="M 7.6020777 0.99714379 C 7.4324015 0.99275817 7.162199 1.0473536 6.7302486 1.1877028 C 4.4265129 1.936232 7.2862404 1.9579275 5.3265657 3.3817145 C 3.3668913 4.8055012 4.2300701 2.0789521 2.8062834 4.0386265 C 1.3824965 5.9983012 3.7087857 4.3347013 2.9602566 6.6384371 C 2.2117276 8.9421724 1.3073956 6.2290695 1.3073957 8.6513602 C 1.3073957 11.073651 2.2117275 8.3605477 2.9602566 10.664283 C 3.7087855 12.968019 1.3824966 11.304707 2.8062834 13.264381 C 4.2300704 15.224056 3.366891 12.497506 5.3265657 13.921293 C 7.28624 15.34508 4.4265132 15.366776 6.7302486 16.115305 C 9.0339844 16.863834 6.733035 15.165379 9.1553262 15.165379 C 11.577617 15.165379 9.2769622 16.863834 11.580698 16.115305 C 13.884433 15.366775 11.024412 15.34508 12.984087 13.921293 C 14.943761 12.497506 14.080876 15.224055 15.504663 13.264381 C 16.92845 11.304706 14.601867 12.968019 15.350396 10.664283 C 16.098925 8.360548 17.003551 11.073651 17.00355 8.6513602 C 17.00355 6.2290691 16.098925 8.9421728 15.350396 6.6384371 C 14.601867 4.3347017 16.92845 5.9983008 15.504663 4.0386265 C 14.080876 2.0789519 14.943761 4.8055015 12.984087 3.3817145 C 11.024412 1.9579277 13.884433 1.9362317 11.580698 1.1877028 C 9.2769617 0.43917376 11.577617 2.1376281 9.1553262 2.1376281 C 7.1872149 2.137628 8.3373412 1.0161481 7.6020777 0.99714379 z M 9.1553262 4.7331338 A 4.011922 3.9183222 0 0 1 13.167444 8.6513602 A 4.011922 3.9183222 0 0 1 9.1553262 12.569874 A 4.011922 3.9183222 0 0 1 5.1435022 8.6513602 A 4.011922 3.9183222 0 0 1 9.1553262 4.7331338 z "
       transform="matrix(1.7586473,0,0,1.8006574,1.5377273,2.0605811)" />
  </g>
</svg>
